<?xml version="1.0" encoding="UTF-8" standalone="no"?>
<!-- Created with Inkscape (http://www.inkscape.org/) -->

<svg
   width="1920"
   height="1080"
   viewBox="0 0 508 285.75"
   version="1.1"
   id="svg1"
   xml:space="preserve"
   xmlns="http://www.w3.org/2000/svg"
   xmlns:svg="http://www.w3.org/2000/svg"><defs
     id="defs1" /><g
     id="layer1"><path
       style="fill:#000000;stroke-width:3.28134"
       d="m 241.37368,285.16176 c -0.38531,-0.31274 -1.3347,-0.88016 -2.1098,-1.26118 -0.9232,-0.45378 -2.91315,-2.14457 -5.76942,-4.90205 -2.39817,-2.31506 -5.83603,-5.29306 -7.63994,-6.61777 -3.7007,-2.71763 -13.22193,-11.12379 -17.68665,-15.61534 -2.28305,-2.29685 -3.50315,-3.83055 -5.31754,-6.68467 -1.29508,-2.0372 -2.95209,-4.50649 -3.68233,-5.48734 -3.05433,-4.10275 -6.35265,-10.96716 -7.59647,-15.80964 -0.34016,-1.32427 -0.79215,-2.88793 -1.00443,-3.47474 -1.30404,-3.60497 -2.26696,-13.09969 -1.8702,-18.44107 0.3733,-5.02514 0.0953,-8.18107 -0.88115,-10.00236 -0.93929,-1.75205 -2.39135,-3.70655 -4.23652,-5.70237 -1.5474,-1.6737 -11.33364,-9.23989 -15.62864,-12.08322 -1.62455,-1.07543 -3.67498,-2.54752 -4.55658,-3.27133 -0.88156,-0.72378 -2.57436,-2.10797 -3.76171,-3.07588 -1.18741,-0.96795 -4.03171,-3.00513 -6.32069,-4.52706 -2.28896,-1.52195 -5.21658,-3.51754 -6.50582,-4.43467 -7.00966,-4.98648 -9.12667,-6.36867 -14.88591,-9.71912 -3.46805,-2.01752 -6.87791,-4.06877 -7.57746,-4.55825 -0.69955,-0.48952 -3.42116,-2.022 -6.04805,-3.40556 -5.33956,-2.8123 -8.11463,-4.40404 -12.65265,-7.25729 -1.70187,-1.07005 -4.77666,-2.92155 -6.832784,-4.11442 -3.021736,-1.75307 -4.504802,-2.85717 -7.735868,-5.75911 C 87.593364,125.83206 74.743783,115.03485 69.890474,111.158 67.394002,109.16384 53.415051,95.117301 50.213778,91.386199 44.396965,84.606637 42.914854,82.768664 40.832601,79.752549 36.317371,73.212275 33.986057,69.342338 28.569426,59.395822 27.295658,57.056859 25.587504,54.031965 24.77351,52.673846 22.686056,49.191065 18.974391,41.889811 16.791294,36.971947 15.7711,34.673777 14.619591,32.183672 14.232384,31.438415 13.845173,30.693121 13.015125,28.826885 12.387835,27.291149 11.760537,25.755457 10.318971,22.713352 9.1843533,20.530941 l -2.062936,-3.967994 -0.183464,1.319067 C 6.8370451,18.60751 6.675917,22.102545 6.5798778,25.64871 c -0.1571896,5.80438 -0.1131436,6.830853 0.4412534,10.288753 1.5131947,9.43791 1.6424144,9.888321 7.0054968,24.418663 1.881549,5.097711 3.429641,8.655837 6.028348,13.855498 4.601837,9.207675 8.081161,15.566869 9.923924,18.138118 0.822909,1.148193 2.325253,3.449858 3.338561,5.114819 2.008444,3.300119 5.038335,7.394229 8.172443,11.042919 1.101797,1.28266 2.440413,2.8877 2.974686,3.56674 0.53429,0.67907 1.845423,2.14198 2.913677,3.25091 l 1.942271,2.0162 -1.959864,1.91152 c -2.196048,2.14194 -2.87126,2.40688 -6.161025,2.4177 -1.856464,0.006 -2.873545,-0.1196 -6.868556,-0.84809 -4.353744,-0.794 -11.098885,-3.65793 -13.949614,-5.92286 -0.837158,-0.66512 -1.522104,-1.12637 -1.522104,-1.02504 0,0.36933 3.436513,6.63555 5.002264,9.12128 4.146545,6.58286 11.225631,15.5924 18.022545,22.93727 4.298464,4.64497 13.618026,12.00434 19.341651,15.27344 1.375857,0.78584 4.159978,2.58423 6.186944,3.99648 2.556024,1.78079 5.027478,3.19826 8.064936,4.62543 2.408745,1.13177 4.488027,2.05773 4.620625,2.05773 0.132854,0 1.121613,0.86547 2.197823,1.92321 l 1.956727,1.92327 -2.264515,2.20864 -2.264515,2.20869 -3.796645,0.27352 c -6.379624,0.45939 -13.224762,-0.46868 -19.719518,-2.67361 -4.351779,-1.47742 -7.017683,-2.96063 -13.015531,-7.24146 -1.392455,-0.99379 -2.685047,-1.89722 -2.872455,-2.00754 -0.187573,-0.11026 0.82529,1.71744 2.250433,4.06171 1.425136,2.34424 3.386157,5.58952 4.357816,7.21173 1.908543,3.18642 6.025446,8.39719 8.436675,10.67829 1.846123,1.74648 13.925417,10.64861 16.239265,11.96793 3.728747,2.12603 18.996148,8.55793 21.107042,8.89199 0.655818,0.10378 1.490782,0.71294 2.975639,2.17092 l 2.064016,2.02669 -1.961826,1.94112 c -2.827499,2.79766 -2.2818,2.60929 -10.260322,3.54115 -1.469801,0.17192 -4.824348,0.61157 -7.454554,0.97757 -9.445278,1.3142 -18.709014,1.90589 -24.965872,1.59456 -2.591568,-0.12886 -4.711886,-0.22813 -4.711823,-0.22071 5.6e-5,0.005 1.234332,1.01793 2.742837,2.24532 7.516279,6.11569 15.90908,11.64646 22.715299,14.96919 1.392447,0.67977 4.114059,2.11389 6.048042,3.18687 1.933977,1.07302 4.896041,2.51924 6.582354,3.21387 2.717287,1.11936 3.421199,1.29176 6.188686,1.51605 1.717469,0.13945 4.388537,0.43444 5.935677,0.65599 1.547185,0.22165 3.258495,0.40253 3.802895,0.40204 0.87833,-7.6e-4 1.29823,0.30108 3.7273,2.67906 1.50557,1.47403 2.73741,2.86486 2.73741,3.09078 0,0.44748 -6.0415,6.36145 -8.27777,8.10297 -0.762201,0.59363 -2.069,1.52686 -2.904014,2.07387 l -1.518185,0.99454 0.934878,0.15977 c 3.725031,0.63669 7.971571,0.81074 11.815171,0.48436 5.60243,-0.47572 7.10066,-0.83397 13.85446,-3.31323 6.35717,-2.33366 9.04496,-3.19032 12.81937,-4.086 6.55998,-1.55665 7.51612,-1.69738 13.50259,-1.98705 l 6.04806,-0.29259 5.20411,0.83573 c 9.93584,1.59566 15.20935,2.24573 20.46018,2.5222 2.90353,0.15308 7.30456,0.40352 9.78003,0.55702 2.47547,0.15357 7.05155,0.35061 10.16907,0.4382 l 5.66814,0.15902 3.04745,2.98153 3.04746,2.98153 -3.08473,3.01806 c -1.69664,1.65992 -3.25057,3.01805 -3.45317,3.01805 -0.20265,0 -1.91372,-0.4847 -3.80241,-1.07711 -6.25201,-1.96101 -13.8714,-3.63226 -18.9057,-4.14689 -3.32498,-0.33981 -8.59606,-1.13476 -16.45631,-2.48151 -11.68829,-2.00271 -12.90003,-2.10054 -18.71605,-1.51106 -5.86086,0.59405 -6.8014,0.75943 -13.62861,2.39641 -4.10932,0.98529 -7.56295,2.04589 -12.04387,3.69858 -9.41346,3.47193 -9.71276,3.52829 -18.34232,3.45329 -7.796868,-0.0679 -9.929975,-0.26241 -14.198258,-1.29551 l -2.805424,-0.67907 -2.330411,-2.2611 c -1.281705,-1.24368 -2.406316,-2.49448 -2.499108,-2.77963 -0.128741,-0.39504 0.489368,-1.16261 2.597346,-3.22642 2.412575,-2.36192 2.964644,-2.76409 4.319986,-3.14706 2.319714,-0.65554 7.598819,-3.04933 7.600975,-3.44669 5.46e-4,-0.0986 -1.486397,-0.50388 -3.304332,-0.9009 -4.322754,-0.94412 -5.907809,-1.63239 -12.458804,-5.40981 -3.010888,-1.73614 -7.183266,-4.05673 -9.271949,-5.15691 -6.014365,-3.16785 -8.249028,-4.55663 -13.502275,-8.39142 -7.167043,-5.23178 -17.707915,-13.88587 -21.515172,-17.66403 l -1.964223,-1.94919 2.124845,-2.07243 2.12488,-2.07247 3.07436,0.98872 c 7.099431,2.28326 15.959023,2.61997 28.673021,1.08997 3.591714,-0.43228 10.408092,-1.46723 11.111515,-1.68715 0.233342,-0.0728 -1.826354,-1.23016 -4.598082,-2.58412 -5.165095,-2.52316 -7.145746,-3.70279 -10.311031,-6.14128 -1.005666,-0.77472 -3.875361,-2.91506 -6.377111,-4.75632 -8.043312,-5.91978 -16.006277,-14.30049 -20.222036,-21.28303 -1.192808,-1.97562 -4.196223,-6.61678 -6.674223,-10.31364 -4.883991,-7.28626 -6.964921,-10.67993 -7.700106,-12.5575 l -0.47118,-1.20332 2.154063,-2.10093 2.154075,-2.10097 2.279916,2.19058 c 1.253976,1.20486 3.150188,3.1977 4.213898,4.42864 1.548353,1.79177 3.015169,3.00746 7.356926,6.09741 6.093679,4.33675 8.333703,5.57794 12.5962,6.97956 3.786366,1.245 6.747007,1.83079 10.267625,2.03156 l 2.813029,0.16025 -0.843909,-0.69096 c -0.46415,-0.38023 -2.995894,-2.10004 -5.626078,-3.82193 C 56.252696,164.21464 45.137765,155.46566 40.916002,151.26418 34.276897,144.65724 29.212255,138.7639 22.833544,130.22328 18.709029,124.70086 16.048215,120.48175 12.599145,113.99506 11.355471,111.65611 8.5347741,106.53232 6.3309278,102.60884 4.1270813,98.685405 2.24719,95.224927 2.1533833,94.918884 2.0203606,94.484845 2.4466584,93.913082 4.0914988,92.319506 l 2.10867,-2.04294 1.965111,1.901976 c 1.0808143,1.046083 2.1741002,2.331516 2.4295242,2.856516 0.699508,1.437741 5.024361,7.999622 5.926728,8.992382 1.919393,2.11153 10.003243,7.03353 13.386531,8.15062 2.79108,0.92151 9.486515,2.11475 9.486515,1.69061 0,-0.26313 -2.299477,-3.17153 -4.455554,-5.63528 -1.585161,-1.81135 -3.520765,-4.56422 -10.610408,-15.090201 -1.996909,-2.964814 -5.215862,-8.730562 -8.032928,-14.38847 -1.056187,-2.121298 -2.61656,-5.139711 -3.467491,-6.707621 C 11.977265,70.479224 10.51898,67.309961 9.5875562,65.004278 7.32886,59.413028 3.2219695,48.250685 2.7017993,46.289118 2.1386267,44.165389 0.67066203,37.204457 0.29403897,34.871749 -0.32459194,31.040181 0.09229913,14.785052 0.99149221,7.6779706 L 1.4427563,4.1111928 3.537765,2.0582362 5.632774,0.00528199 7.6045555,1.9137092 c 1.9375727,1.8753077 1.9717734,1.933118 1.9717734,3.334334 0,2.1231769 1.4402521,5.8093358 6.4506641,16.5096408 0.799666,1.707774 1.829737,4.099138 2.289053,5.314149 0.45931,1.215013 1.33188,3.274743 1.939037,4.577213 0.607161,1.302476 1.815446,4.023504 2.68507,6.046771 1.937459,4.507612 6.189053,12.995138 8.770103,17.507899 1.054692,1.844001 3.21818,5.75029 4.807833,8.680663 2.874401,5.298884 5.984913,10.474497 8.022609,13.34906 0.586953,0.828029 1.742602,2.506928 2.568059,3.73085 1.590132,2.357696 3.947977,5.313111 6.761354,8.474952 0.939912,1.056321 2.166947,2.479639 2.726753,3.162937 1.61467,1.970844 12.884409,12.986962 14.778303,14.445732 4.036408,3.10903 15.731495,12.83142 19.400388,16.12801 2.508726,2.25413 4.849728,4.08216 6.329353,4.94242 1.291462,0.75087 5.133032,3.04625 8.536812,5.10082 3.40378,2.05458 8.34065,4.88384 10.97085,6.28726 2.6302,1.40342 5.92146,3.25786 7.31392,4.12099 2.73345,1.69442 7.17594,4.26808 11.314,6.55457 1.42647,0.78821 4.08478,2.51112 5.90738,3.82873 4.15671,3.00496 9.77906,6.83101 13.44078,9.14659 1.54716,0.97838 4.33208,3.00624 6.18867,4.5064 4.20277,3.39585 6.31977,4.96047 8.28004,6.11963 0.84082,0.49722 4.82828,3.37451 8.8611,6.39398 11.58218,8.67203 18.29902,15.60421 19.38546,20.00702 0.0984,0.3982 -0.001,2.00327 -0.22103,3.56676 -0.65437,4.6495 -1.08716,11.1708 -0.91688,13.81453 0.27946,4.33883 2.12548,11.65883 4.22475,16.75252 1.76432,4.28107 3.06803,6.711 5.36578,10.00114 1.10654,1.58447 2.76852,4.11241 3.69328,5.61759 3.25044,5.29083 8.79623,10.13038 19.63886,17.13786 3.64124,2.35326 4.77801,2.91776 6.37534,3.166 2.12042,0.32946 5.14109,2.37498 9.07194,6.14356 1.97262,1.89109 3.58646,3.57028 3.58646,3.73142 0,0.37298 -5.40137,5.63603 -5.77161,5.62384 -0.15142,-0.005 -0.59154,-0.26455 -0.97677,-0.57754 z m 21.16079,-2.22991 -2.87813,-2.8166 3.58646,-3.46937 c 4.16085,-4.02526 7.19998,-6.11035 9.32028,-6.39481 1.65738,-0.22238 3.51796,-1.24849 9.47906,-5.2281 4.91054,-3.27819 8.40134,-6.00906 11.88737,-9.29892 1.75958,-1.66047 2.90498,-3.09082 4.5838,-5.72342 1.23112,-1.93036 3.06481,-4.69845 4.07454,-6.15131 2.54748,-3.6641 3.68168,-5.92868 6.15617,-12.28835 0.35231,-0.90538 1.18364,-3.86855 1.84745,-6.58481 1.17709,-4.81654 1.20711,-5.05386 1.20421,-9.60281 -0.002,-4.35794 -0.18192,-6.68143 -0.97471,-12.48371 -0.29433,-2.16172 -0.27421,-2.44027 0.29079,-3.81209 1.07062,-2.60245 2.56823,-4.44561 7.6109,-9.36853 3.44035,-3.35839 6.11983,-5.67875 8.86811,-7.67956 2.16577,-1.57687 5.14096,-3.78351 6.61071,-4.90362 1.46971,-1.12003 3.87487,-2.80027 5.34464,-3.73382 1.46986,-0.93353 4.63427,-3.26524 7.03248,-5.18157 2.39832,-1.91633 5.28679,-4.06475 6.41938,-4.77425 3.41235,-2.13804 9.54472,-6.3045 13.19123,-8.96279 1.88976,-1.37738 5.49754,-3.65994 8.0171,-5.0724 2.52008,-1.41242 6.3538,-3.63891 8.51998,-4.94777 2.16615,-1.30882 5.2675,-3.0992 6.89206,-3.97865 6.71779,-3.63663 8.26235,-4.51578 13.50246,-7.68441 3.01707,-1.8244 6.53562,-3.92911 7.81919,-4.6772 1.39066,-0.8103 3.72188,-2.61291 5.76692,-4.45928 1.88797,-1.70453 5.26851,-4.60287 7.51181,-6.44072 2.24338,-1.83788 5.72441,-4.70975 7.73573,-6.38195 2.01154,-1.67219 4.35332,-3.57216 5.20413,-4.22215 3.65425,-2.79128 16.26577,-16.002713 21.40135,-22.419688 3.58424,-4.478706 9.22802,-13.37982 13.50538,-21.300055 1.61061,-2.982995 4.01392,-7.327503 5.33997,-9.65448 3.29395,-5.779586 8.61591,-17.137758 12.41194,-26.488467 0.76552,-1.88626 2.28197,-5.273352 3.36937,-7.526833 3.41386,-7.072116 5.12834,-11.5543817 5.19462,-13.5754169 l 0.0571,-1.7593928 1.99148,-1.942288 L 502.4212,0 l 2.09228,2.0554815 2.0926,2.0554507 0.4447,3.70395 c 0.62176,5.1739638 1.07661,16.1880188 0.9171,22.2237068 -0.12071,4.638337 -0.23077,5.536875 -1.30452,10.425925 -1.46814,6.707166 -1.31158,6.191852 -4.42151,14.541461 -4.32953,11.623731 -4.91272,12.950771 -10.00881,22.772428 -5.84165,11.258523 -6.19276,11.886932 -8.81177,15.776077 -1.11781,1.659939 -3.35321,4.9935 -4.96759,7.40791 -1.61418,2.41443 -4.13173,5.80973 -5.59458,7.54509 -3.45582,4.10032 -4.29022,5.21098 -4.07398,5.42197 0.24475,0.23949 6.93378,-0.97869 8.99365,-1.63829 2.58255,-0.82686 5.63595,-2.43041 8.85599,-4.65079 1.60639,-1.10754 3.27943,-2.26067 3.7183,-2.56248 0.43857,-0.3017 1.23301,-1.11265 1.76489,-1.80189 1.3079,-1.69416 5.12692,-7.665587 5.34374,-8.354947 0.0946,-0.304609 1.12525,-1.475556 2.28811,-2.601935 l 2.1134,-2.047932 2.11747,2.065111 2.11738,2.065104 -0.41206,0.94838 c -0.22424,0.521599 -1.57736,2.985546 -3.00155,5.475419 -1.42438,2.4899 -3.97849,7.11982 -5.67611,10.28876 -3.54758,6.62226 -6.21624,11.24358 -8.08027,13.99271 -1.91629,2.82586 -7.35506,10.02023 -9.95604,13.1696 -3.10679,3.76171 -10.57008,11.84248 -13.58734,14.71104 -3.44276,3.27328 -15.34472,12.41736 -20.77173,15.95839 -2.47479,1.61521 -4.81724,3.19441 -5.20392,3.50927 l -0.70329,0.57244 2.95362,-0.16139 c 3.50196,-0.19152 6.78381,-0.86427 10.71491,-2.19651 3.48213,-1.18 5.42721,-2.20225 9.117,-4.79111 1.5473,-1.08552 3.82602,-2.67321 5.06349,-3.52825 1.23792,-0.855 2.9467,-2.28141 3.7977,-3.1697 0.85103,-0.88833 2.96745,-3.05374 4.70411,-4.81199 l 3.15609,-3.19684 2.10942,2.04274 c 1.80085,1.74368 2.08537,2.14532 1.94512,2.74365 -0.26748,1.14228 -2.53703,5.11907 -5.05838,8.86337 -1.29571,1.924 -3.41504,5.07236 -4.71046,6.99635 -1.29502,1.92398 -3.28906,5.0816 -4.43047,7.01689 -1.14167,1.9353 -3.26965,4.96018 -4.72916,6.72198 -3.20066,3.86387 -10.50499,11.16222 -13.15212,13.14176 -1.0542,0.7882 -3.8153,2.86322 -6.13616,4.61111 -5.88678,4.43354 -8.02374,5.77004 -13.50267,8.4447 -2.69597,1.31618 -4.59793,2.39422 -4.35994,2.47124 0.22909,0.0751 2.06731,0.39402 4.07881,0.70862 17.11964,2.67773 27.5183,2.57964 36.41883,-0.34366 1.34282,-0.44112 2.24715,-0.6027 2.5273,-0.45164 0.239,0.12938 1.25573,1.04675 2.25736,2.03872 l 1.82086,1.80355 -2.10235,2.08393 c -3.42967,3.40003 -14.59283,12.5728 -20.94934,17.21434 -5.57314,4.06917 -7.18428,5.08126 -13.05555,8.19926 -2.56685,1.36318 -6.7554,3.6817 -9.30815,5.15228 -7.5333,4.3396 -8.51952,4.78473 -12.7702,5.76365 -2.10469,0.48478 -3.82625,0.96021 -3.82587,1.05643 0.002,0.37374 5.06778,2.6836 7.59451,3.46288 1.29909,0.40079 1.98615,0.89973 4.28962,3.11658 1.50879,1.45169 2.74281,2.77287 2.74281,2.93613 0,0.16325 -1.23402,1.47693 -2.74281,2.91942 l -2.74271,2.62261 -2.67247,0.58294 c -4.34118,0.94685 -6.23936,1.10953 -13.78713,1.18158 -8.62477,0.0823 -8.92265,0.0269 -18.33374,-3.43635 -4.47657,-1.64718 -7.93118,-2.70503 -12.04384,-3.68801 -7.26751,-1.73706 -7.82723,-1.83562 -13.71316,-2.41449 -6.26035,-0.61585 -7.84244,-0.4581 -23.41903,2.33485 -2.82979,0.5074 -4.13109,0.69171 -13.6426,1.93214 -4.61549,0.60175 -11.5518,2.18335 -16.97339,3.87 -1.90834,0.59377 -3.6195,1.07959 -3.80214,1.07959 -0.18046,0 -1.72045,-1.35814 -3.41737,-3.01805 l -3.0844,-3.01807 3.04735,-2.98151 3.04746,-2.98157 5.66803,-0.15902 c 3.11749,-0.0874 7.75704,-0.29004 10.30968,-0.45026 2.55271,-0.16002 6.94403,-0.40943 9.75789,-0.55392 5.06815,-0.26032 10.28148,-0.90282 20.34182,-2.50749 4.86855,-0.77662 5.51216,-0.81864 9.98607,-0.65144 9.32926,0.34859 17.60022,2.2656 28.9746,6.71582 4.58046,1.79211 6.77546,2.2836 12.36637,2.76942 3.17002,0.27549 4.66169,0.27285 7.73568,-0.0125 5.08979,-0.47455 5.24273,-0.53901 3.65588,-1.54107 -2.05331,-1.29673 -5.56311,-4.26376 -8.6907,-7.34678 l -2.936,-2.89433 2.91929,-2.89327 c 2.44872,-2.42711 3.05773,-2.893 3.77971,-2.89167 0.47378,8.6e-4 2.18997,-0.17991 3.81453,-0.40124 1.62453,-0.22163 4.34632,-0.52676 6.048,-0.67821 4.17607,-0.37162 6.46631,-1.27672 15.61265,-6.17009 1.93392,-1.03472 4.88155,-2.612 6.55024,-3.5051 6.0495,-3.23764 9.82007,-5.76084 17.36036,-11.61722 1.77925,-1.38186 3.48824,-2.79368 3.79767,-3.13736 l 0.56256,-0.62487 -5.2039,0.18915 c -6.39407,0.23243 -14.93892,-0.34557 -24.05176,-1.62616 -2.62978,-0.36964 -6.55437,-0.86222 -8.72024,-1.09461 -6.16482,-0.66145 -6.17558,-0.66542 -8.73675,-3.17842 l -2.2205,-2.17836 2.06459,-2.02707 c 1.53305,-1.50524 2.3107,-2.06615 3.02118,-2.17859 2.04914,-0.32433 17.83145,-7.00095 21.06202,-8.91014 1.91863,-1.13413 13.04633,-9.21543 15.21697,-11.05129 2.802,-2.36992 7.50071,-8.18988 9.81883,-12.16238 0.77381,-1.32557 2.56033,-4.30866 3.97039,-6.62911 1.40975,-2.32042 2.42232,-4.14061 2.25041,-4.04482 -0.17029,0.0958 -1.19972,0.81314 -2.28241,1.59415 -5.29801,3.82079 -9.51231,6.26097 -12.75332,7.38468 -6.00021,2.08044 -14.23104,3.39287 -19.15816,3.05496 -5.55696,-0.38116 -5.18436,-0.26198 -7.49481,-2.40218 -1.14723,-1.06306 -2.08624,-2.07503 -2.08624,-2.24887 0,-0.17382 0.79582,-1.08494 1.76785,-2.02478 1.51045,-1.46004 2.33696,-1.96805 5.67915,-3.48969 4.47605,-2.03801 6.5104,-3.20433 10.27523,-5.89082 1.46982,-1.0488 3.62175,-2.42614 4.7821,-3.06077 2.39904,-1.31202 6.77656,-4.4217 12.51828,-8.89302 4.21285,-3.28068 7.54273,-6.68615 13.54169,-13.84846 4.05601,-4.84252 5.09217,-6.20939 10.21839,-13.47882 1.41798,-2.01081 6.48,-10.84552 6.48,-11.30957 0,-0.0835 -0.84916,0.47491 -1.88676,1.24097 -4.89606,3.61419 -14.12404,6.54487 -20.5943,6.54025 -3.16681,-0.002 -3.84142,-0.2761 -6.0654,-2.46198 l -1.95967,-1.9258 1.70742,-1.71508 c 0.93946,-0.9433 2.70759,-2.93132 3.93037,-4.4178 1.22283,-1.4865 3.21206,-3.89407 4.42015,-5.35014 1.20823,-1.45612 3.10725,-4.04211 4.21958,-5.74666 1.11232,-1.704573 3.11595,-4.729465 4.45182,-6.721985 2.87917,-4.293856 5.80748,-9.594393 10.56604,-19.124504 2.65754,-5.322735 4.12027,-8.702761 6.11445,-14.129876 4.39297,-11.955629 5.44409,-15.191352 5.92676,-18.245375 0.25019,-1.584469 0.72001,-4.417916 1.04365,-6.296496 0.53024,-3.080243 0.56926,-4.05017 0.39485,-9.877199 -0.10499,-3.553884 -0.28993,-7.017159 -0.40859,-7.696216 l -0.21384,-1.23465 -2.14178,4.134261 c -1.1779,2.273834 -2.58061,5.242504 -3.11679,6.597023 -0.53631,1.354555 -1.37518,3.235719 -1.86421,4.18047 -0.48887,0.944722 -1.72046,3.593714 -2.73648,5.88663 -2.01458,4.54688 -5.50735,11.404927 -7.57257,14.869273 -0.71952,1.207234 -2.35644,4.10866 -3.63767,6.447633 -4.55994,8.325948 -5.37981,9.777943 -7.2821,12.895222 -1.0593,1.735379 -2.41818,3.834286 -3.01957,4.664258 -0.60235,0.829932 -1.92545,2.73182 -2.94079,4.226358 -1.91785,2.823201 -2.59666,3.673523 -6.59167,8.255077 -1.3171,1.510264 -2.89052,3.363245 -3.49675,4.117741 -1.68027,2.091516 -17.47085,17.550205 -19.71962,19.305655 -3.80794,2.97214 -15.18372,12.55305 -19.43205,16.36568 -3.27316,2.93776 -5.002,4.25836 -7.3291,5.59777 -1.67505,0.96413 -5.38729,3.19564 -8.24931,4.95893 -5.23186,3.22312 -7.88422,4.72632 -13.08086,7.41377 -1.54706,0.80014 -3.88888,2.15127 -5.20401,3.00249 -1.31509,0.85127 -4.98604,3.05756 -8.15792,4.90291 -3.17158,1.84532 -8.29835,5.15092 -11.39272,7.34577 -3.09435,2.19482 -7.27165,5.07468 -9.28305,6.39963 -3.4371,2.26426 -5.54902,3.84677 -9.56414,7.16731 -0.92818,0.76762 -3.08048,2.33575 -4.78236,3.48464 -4.69939,3.17242 -14.22622,10.54471 -15.75348,12.19032 -2.08332,2.24551 -3.80377,4.5993 -4.57595,6.2617 -0.65452,1.4091 -0.6992,1.79059 -0.67866,5.76168 0.0145,2.33895 0.0801,4.93172 0.15046,5.76171 0.21143,2.47075 -0.37766,9.23927 -1.10027,12.62088 -2.20384,10.31223 -4.44554,15.71719 -9.73682,23.47636 -1.75405,2.57157 -3.91695,5.7947 -4.8072,7.16257 -1.22942,1.88911 -2.61691,3.43588 -5.77137,6.43299 -6.13115,5.82511 -12.66908,11.50067 -16.28505,14.13628 -1.85999,1.35608 -4.77494,3.90249 -6.9859,6.10347 -2.58823,2.57636 -4.33844,4.07517 -5.50713,4.71601 -0.942,0.51675 -2.06897,1.21728 -2.50431,1.55684 -0.43544,0.3395 -0.90214,0.6173 -1.03727,0.6173 -0.13402,0 -1.54086,-1.26746 -3.12362,-2.81658 z m -95.43106,-28.60168 -1.53119,-1.51221 1.58892,-1.54974 1.58893,-1.5497 3.60883,0.057 c 3.51167,0.0548 7.97186,-0.49977 8.6906,-1.08118 0.19125,-0.15458 0.85085,0.30203 1.82211,1.26136 l 1.52257,1.5037 -1.54082,1.49537 c -1.27005,1.23259 -1.83744,1.5702 -3.22865,1.9212 -2.19348,0.5535 -5.88916,0.96174 -8.73002,0.96458 l -2.26006,0.002 z m 164.98807,1.21955 c -3.79435,-0.4205 -5.18508,-0.94505 -6.8885,-2.5984 l -1.54425,-1.49849 1.40356,-1.36603 1.40316,-1.36599 2.67237,0.54819 c 2.01035,0.41235 3.60035,0.53622 6.4165,0.50009 l 3.74474,-0.0479 1.53068,1.47445 1.5308,1.47446 -1.60923,1.58628 -1.60954,1.58625 -2.54051,-0.0372 c -1.39707,-0.0173 -3.42653,-0.13567 -4.50978,-0.25529 z M 147.83734,244.95631 c -5.65715,-0.12664 -14.03371,-0.65985 -16.4563,-1.04751 -1.31508,-0.21008 -3.84684,-0.51659 -5.62608,-0.6804 -4.97538,-0.45796 -12.8605,-1.87663 -14.76847,-2.6571 -2.60567,-1.06582 -5.65937,-2.00683 -8.43913,-2.60046 -2.24848,-0.48021 -2.665485,-0.66819 -3.727263,-1.68043 -0.65757,-0.62686 -1.195569,-1.27298 -1.195569,-1.43592 0,-0.16299 0.614625,-0.88655 1.365829,-1.60824 l 1.365823,-1.3121 3.48669,0.5962 c 1.91766,0.32783 4.81584,1.01096 6.44035,1.51794 3.89584,1.21583 5.99654,1.67439 10.63276,2.32112 2.11994,0.29591 5.94309,0.85195 8.49594,1.23597 5.86921,0.88292 9.02397,1.15744 17.19159,1.4962 l 6.55182,0.27185 1.34958,1.29651 c 0.74227,0.71311 1.34959,1.42928 1.34959,1.59152 0,0.1623 -0.60563,0.87679 -1.34585,1.58793 -1.19111,1.14428 -1.47411,1.28621 -2.46141,1.23468 -0.61355,-0.0325 -2.50802,-0.0895 -4.2099,-0.12778 z m 205.6802,-1.13964 c -0.72187,-0.71491 -1.31271,-1.4237 -1.31271,-1.57513 0,-0.15154 0.60708,-0.85866 1.3497,-1.57175 l 1.34935,-1.29652 6.59735,-0.27284 c 7.98861,-0.33044 11.15643,-0.60927 17.33443,-1.52606 2.60413,-0.38641 6.38021,-0.93916 8.39165,-1.22834 5.04277,-0.725 6.24463,-0.9846 10.18124,-2.1993 1.88637,-0.58211 4.97937,-1.31622 6.87303,-1.63137 l 3.44319,-0.57295 1.41836,1.38334 1.41834,1.38333 -1.3716,1.35824 c -1.32942,1.31654 -1.47099,1.38073 -4.61958,2.09484 -1.78625,0.40521 -4.14088,1.09985 -5.23208,1.54375 -1.09105,0.44388 -2.46415,0.98072 -3.05084,1.19303 -1.48645,0.53782 -10.09069,1.97122 -13.98289,2.32949 -1.77924,0.16344 -4.31099,0.46999 -5.62613,0.6804 -2.39626,0.38348 -9.6607,0.82717 -17.60522,1.07525 l -4.24277,0.13236 z M 159.3708,223.07358 c -4.11945,-1.20456 -5.62586,-1.85624 -17.18992,-7.43641 -5.43181,-2.62106 -10.87502,-5.15009 -12.09608,-5.62 -1.22103,-0.46995 -3.73912,-1.51052 -5.59571,-2.31241 -1.85662,-0.8019 -4.76466,-2.05625 -6.46234,-2.7875 -2.52434,-1.08733 -3.43705,-1.6519 -5.0099,-3.09904 l -1.92321,-1.76952 1.27052,-1.23917 c 1.17942,-1.15038 1.30671,-1.2082 1.77491,-0.80644 0.84848,0.72803 2.80003,1.584 7.08927,3.10956 9.01354,3.20579 11.76702,4.37254 20.32631,8.61317 9.07176,4.49442 11.36758,5.47116 17.7859,7.56637 3.31753,1.08293 3.74859,1.30275 5.0565,2.57841 l 1.42978,1.39451 -1.38896,1.37541 c -0.76393,0.75642 -1.52031,1.36694 -1.68082,1.35664 -0.16046,-0.01 -1.68434,-0.4259 -3.38625,-0.92358 z m 184.25054,-0.43306 -1.3887,-1.37541 1.42206,-1.38706 c 1.3261,-1.29342 1.71511,-1.48492 5.75961,-2.83651 6.45646,-2.15744 7.47817,-2.59677 17.39547,-7.48052 7.69358,-3.78891 10.35403,-4.94168 17.01899,-7.3743 4.34441,-1.58588 8.51979,-3.25599 9.2784,-3.71144 l 1.37924,-0.82809 1.08251,1.0307 c 0.59527,0.56691 1.08194,1.1721 1.08194,1.34483 0,0.6519 -3.3945,3.4527 -5.12333,4.22726 -3.52588,1.57982 -11.41863,4.93448 -13.57494,5.76994 -1.21418,0.47038 -6.52282,2.93538 -11.79738,5.47777 -11.11705,5.35848 -14.09495,6.63011 -18.08456,7.72281 -1.59759,0.43749 -2.93932,0.79539 -2.98237,0.79539 -0.0426,0 -0.70298,-0.61895 -1.46694,-1.37537 z M 150.05728,195.67154 c -0.94507,-0.63253 -2.52742,-1.84033 -3.5163,-2.68388 -2.23226,-1.90431 -5.65144,-4.33249 -8.73228,-6.20143 -1.29184,-0.78365 -3.8045,-2.55313 -5.58374,-3.93219 -1.77926,-1.37901 -4.35488,-3.18448 -5.72359,-4.01212 -5.09628,-3.08162 -13.8774,-8.85941 -15.34686,-10.09792 -0.83589,-0.70452 -3.24105,-2.41309 -5.34478,-3.79683 -2.10373,-1.38378 -4.90096,-3.5132 -6.21606,-4.73208 -1.315108,-1.21885 -3.910129,-3.49586 -5.766737,-5.06 -1.856616,-1.56416 -6.930361,-6.31044 -11.275015,-10.54729 -7.376377,-7.19334 -7.979101,-7.8554 -9.10382,-9.9997 l -1.204445,-2.29636 2.910098,-2.84803 2.910083,-2.84801 2.76941,2.67507 c 1.953911,1.88732 3.047383,3.20025 3.713379,4.45845 0.519187,0.98085 1.4954,2.4298 2.169385,3.21985 0.673986,0.79005 2.272446,3.32658 3.552156,5.63671 2.749083,4.96268 3.838402,6.43532 7.825072,10.57855 2.863244,2.97574 6.160504,5.69431 9.798904,8.07913 0.9283,0.60847 2.44733,1.74921 3.37564,2.53499 2.21866,1.87799 5.05267,3.84801 10.72849,7.45782 5.01982,3.19258 7.86744,5.14362 11.97346,8.20356 1.43849,1.072 3.80929,2.66751 5.26844,3.54551 1.45916,0.87806 3.90571,2.59372 5.43679,3.81262 1.53108,1.21889 3.75508,2.87545 4.9422,3.68134 1.18715,0.80584 2.7597,2.0358 3.49459,2.73332 l 1.33616,1.26814 -1.18375,1.17642 c -0.65106,0.64698 -1.25231,1.16922 -1.33616,1.16045 -0.084,-0.01 -0.92565,-0.53353 -1.87072,-1.16609 z m 204.73835,0.005 -1.18313,-1.17593 1.47626,-1.39218 c 0.81191,-0.76569 2.17264,-1.8356 3.02328,-2.37763 0.85102,-0.54205 2.68655,-1.91372 4.0792,-3.04825 1.3923,-1.13446 3.77269,-2.83804 5.28985,-3.78572 1.51698,-0.94761 4.49152,-2.98999 6.61052,-4.53855 2.11902,-1.54855 7.52348,-5.20594 12.01031,-8.12751 4.48697,-2.92155 8.9806,-6.01864 9.98634,-6.8824 1.00579,-0.86377 2.39805,-1.95176 3.09445,-2.41773 4.27523,-2.86131 6.9998,-5.04696 9.94054,-7.97454 4.07084,-4.05267 6.29114,-6.88467 7.97057,-10.16469 1.69686,-3.31493 3.04481,-5.4783 4.51532,-7.24637 0.66625,-0.80067 1.57913,-2.15879 2.02936,-3.01805 0.53568,-1.02196 1.77626,-2.48744 3.58791,-4.23734 l 2.76903,-2.67507 2.87277,2.81224 2.87288,2.81225 -0.70646,1.48625 c -0.38873,0.8174 -1.25877,2.23724 -1.93363,3.15518 -1.46217,1.98846 -13.80602,13.93737 -18.5872,17.99242 -1.85678,1.57465 -4.45181,3.85945 -5.76695,5.07729 -1.31507,1.21788 -4.03635,3.31209 -6.04799,4.65382 -2.01115,1.34174 -4.79607,3.328 -6.18886,4.41396 -2.35734,1.83866 -9.41847,6.47041 -15.10822,9.91053 -1.34752,0.81465 -4.00884,2.68062 -5.91423,4.1466 -1.90536,1.46605 -4.8766,3.51878 -6.60259,4.56172 -1.72606,1.04296 -4.57128,3.06238 -6.32272,4.48765 -2.73349,2.22454 -6.16733,4.72797 -6.48588,4.72797 -0.0535,0 -0.62985,-0.5292 -1.28073,-1.17592 z m -149.66888,-76.56266 -2.05164,-2.01452 0.70741,-2.59309 c 0.93513,-3.42802 0.9744,-3.52165 3.60716,-8.604 3.14347,-6.068227 5.00347,-11.27942 5.21143,-14.60089 0.15648,-2.497399 -0.27518,-5.681399 -0.81421,-6.006269 -0.13691,-0.0823 -3.12479,2.683795 -6.64079,6.14678 -5.97924,5.88909 -8.53181,8.011513 -9.63525,8.011513 -0.72835,0 -4.49333,-3.943422 -4.49333,-4.706279 0,-0.35708 -0.43205,-2.191357 -0.96014,-4.076126 -1.4107,-5.035175 -1.57158,-6.203849 -1.57158,-11.415399 0,-4.356336 0.0658,-4.979271 0.83004,-7.837662 1.69548,-6.342381 2.31293,-7.862784 4.46065,-10.984049 1.11276,-1.617166 2.02319,-3.040577 2.02319,-3.163167 0,-0.122474 0.82406,-1.019443 1.83126,-1.993037 l 1.83126,-1.770214 1.85162,1.805955 1.85162,1.805961 -0.76682,1.481193 c -0.42173,0.814642 -1.60002,2.777576 -2.61836,4.362043 -2.20199,3.426106 -2.92327,5.087378 -4.04298,9.31234 -0.72388,2.731434 -0.83905,3.656415 -0.83036,6.668345 0.007,1.923365 0.15313,4.454396 0.3282,5.624529 0.30867,2.06258 1.57589,6.654567 1.83649,6.654567 0.0705,0 1.04778,-0.567125 2.17107,-1.260245 1.44415,-0.891125 3.56653,-2.781466 7.24644,-6.454272 4.56159,-4.552718 5.31177,-5.193216 6.0759,-5.187379 0.7302,0.0064 1.30921,0.446385 3.56593,2.714673 3.29135,3.308248 3.40668,3.622292 3.23682,8.81537 -0.14851,4.541765 -0.55431,5.823604 -4.21263,13.306799 -2.54405,5.20399 -3.95724,8.38806 -3.79364,8.54758 0.18956,0.18472 4.66806,-2.56001 6.50944,-3.98948 2.61256,-2.02802 6.29249,-5.61683 7.44007,-7.25579 1.29407,-1.848174 4.61106,-8.01297 6.0773,-11.295003 3.40232,-7.615687 7.49629,-20.825925 8.84292,-28.534157 1.46797,-8.401912 0.74237,-15.492987 -2.16033,-21.114924 -0.73568,-1.424934 -1.56625,-2.448499 -3.20653,-3.952566 -1.21773,-1.116308 -2.21401,-2.172011 -2.21401,-2.345998 0,-0.396777 2.86435,-3.178403 3.27288,-3.178403 0.43859,0 5.16241,4.838959 6.29434,6.447635 1.26959,1.804561 2.94113,5.621736 3.68137,8.407124 0.53286,2.004896 0.57996,2.77048 0.46002,7.476379 -0.12167,4.826251 -0.22497,5.667719 -1.29786,10.592876 -0.64032,2.942583 -1.4679,6.27614 -1.83904,7.407902 -0.37132,1.131763 -0.95428,3.107199 -1.29584,4.389876 -1.55272,5.833677 -4.58891,13.52182 -8.25219,20.896056 -2.13682,4.301375 -2.61854,5.046483 -5.02744,7.775713 -3.16594,3.58705 -13.15312,13.15929 -15.54681,14.90097 -1.64341,1.19574 -4.82303,2.79523 -5.55662,2.79523 -0.20082,0 -1.28812,-0.90652 -2.41652,-2.01449 z m 145.30297,-7.32584 c -3.57934,-0.58657 -4.37948,-1.01558 -7.39657,-3.96648 -3.07585,-3.00812 -4.457,-5.21753 -5.31129,-8.494418 -0.55289,-2.121224 -0.54994,-6.792448 0.005,-9.903215 0.53104,-2.968767 3.08424,-9.306866 5.68581,-14.114808 1.02069,-1.886263 2.56716,-4.787689 3.43642,-6.447632 1.78344,-3.406338 3.11339,-5.494191 4.59264,-7.210094 0.55674,-0.645749 1.48284,-1.942133 2.05822,-2.880853 1.65226,-2.696692 3.73721,-5.080445 7.1827,-8.212659 5.631,-5.119007 6.87044,-5.980375 11.80643,-8.203072 l 2.6408,-1.189121 3.51633,-0.0065 c 2.16941,-0.0029 4.05525,0.1387 4.92288,0.374726 2.53664,0.689463 5.24549,2.263596 7.45445,4.331394 l 2.10986,1.974823 -1.62116,1.605826 -1.62106,1.605825 -2.14332,-1.019741 c -3.3903,-1.612793 -5.49432,-2.024533 -10.22682,-2.001073 -3.47752,0.01615 -4.34867,0.111817 -5.90748,0.641564 -4.29933,1.461199 -9.68624,5.597504 -12.27867,9.428613 -0.73767,1.089958 -2.0501,2.907713 -2.91661,4.039481 -2.22598,2.907424 -2.86659,3.986139 -6.71079,11.293096 -5.01164,9.526508 -6.40908,13.191799 -7.11259,18.653365 -0.45976,3.571082 0.13474,7.397921 1.6077,10.320833 0.87403,1.73655 1.17567,2.07831 2.3421,2.65485 5.46893,2.70301 13.79022,1.72472 21.41169,-2.5172 3.42966,-1.90871 11.28856,-6.991747 13.64356,-8.824211 0.77359,-0.601964 2.86207,-2.07583 4.64118,-3.275264 1.77933,-1.19942 4.4443,-3.212809 5.92202,-4.474221 3.13975,-2.680137 5.69323,-4.625566 6.0713,-4.625566 0.14514,0 0.82602,0.555266 1.50891,1.233903 l 1.24155,1.233905 -1.11218,1.120745 c -0.6126,0.616385 -1.68308,1.447359 -2.37897,1.846564 -0.69634,0.399204 -2.8483,1.970547 -4.78229,3.491859 -1.93422,1.521311 -4.33933,3.305301 -5.34498,3.964425 -1.0055,0.659129 -3.34757,2.330308 -5.20399,3.713766 -5.86271,4.368505 -13.31471,9.176365 -17.01866,10.979845 -2.4644,1.19968 -6.68964,2.48258 -9.3741,2.84608 -2.4564,0.33265 -3.37036,0.33465 -5.34123,0.0129 z m -232.74733,-1.9767 c -3.94988,-3.90803 -4.93966,-6.51951 -4.96549,-13.100999 -0.0155,-4.101242 0.016,-4.350374 0.91556,-6.99635 1.83226,-5.392799 2.84943,-7.084105 7.76229,-12.907121 5.76342,-6.831112 9.11004,-9.641482 16.73758,-14.0557 2.86228,-1.65644 5.46677,-3.090322 5.78774,-3.186432 0.46372,-0.138726 0.96933,0.214836 2.4614,1.722411 l 1.87782,1.897086 -0.002,2.564573 c -0.002,2.509258 -0.2801,4.966411 -1.37635,12.1674 -0.29864,1.961731 -0.63464,5.449635 -0.74668,7.75088 -0.23274,4.775892 -0.3591,4.569729 2.22612,3.626342 3.66018,-1.335691 7.46586,-4.251541 10.50238,-8.046778 3.71905,-4.648279 5.01858,-6.653145 6.86328,-10.588503 2.0599,-4.394381 2.6234,-6.453336 3.07814,-11.247469 0.65387,-6.892788 -0.0899,-12.502861 -2.14475,-16.180728 -1.26989,-2.272759 -2.55512,-3.577177 -4.76845,-4.839668 -0.95862,-0.546812 -2.58258,-1.819408 -3.6088,-2.828059 l -1.86584,-1.83386 1.80824,-1.747985 1.80823,-1.747962 1.44726,1.206658 c 8.18496,6.824178 11.11722,10.208518 12.45583,14.376223 1.15593,3.598861 0.71288,14.440415 -0.8129,19.891609 -0.46063,1.645874 -3.09697,7.275884 -4.43239,9.465653 -2.36148,3.872265 -6.6844,9.232491 -10.30192,12.773901 -3.13052,3.064656 -4.51818,4.183581 -7.87867,6.353005 -4.79335,3.094436 -5.88464,3.642257 -6.80632,3.416639 -0.37232,-0.09106 -1.5681,-1.064648 -2.65724,-2.163357 l -1.98028,-1.997635 0.22146,-2.194926 c 0.33676,-3.334755 0.80287,-8.297725 1.23685,-13.169602 0.21493,-2.414438 0.54948,-5.898392 0.74316,-7.742097 0.19379,-1.843747 0.27852,-3.423906 0.18908,-3.5115 -0.20954,-0.204473 -5.96149,2.86387 -8.52822,4.549313 -2.56583,1.684831 -3.66496,2.746469 -6.89197,6.656842 -3.4738,4.209409 -4.29905,5.531753 -5.50347,8.818514 -1.40347,3.829878 -1.81077,6.014176 -1.80832,9.698029 0.002,3.739173 0.3384,6.151483 1.16278,8.350253 0.51839,1.38259 0.68438,1.5776 1.34255,1.5776 0.51857,0 1.13576,0.38232 1.99402,1.23522 l 1.24293,1.23526 -1.38477,1.37127 c -1.1473,1.13606 -1.55668,1.37122 -2.38698,1.37122 -0.87167,0 -1.26397,-0.25892 -3.01261,-1.98917 z m 174.44141,-4.35086 c -1.20596,-0.22914 -1.68732,-0.52599 -3.08488,-1.90375 l -1.65638,-1.6323 1.51056,-1.49166 1.51043,-1.491686 2.84063,0.155192 c 3.55985,0.194438 8.73799,-0.283858 12.72028,-1.17463 5.91343,-1.322728 5.13712,-1.396318 7.25772,0.687771 l 1.85075,1.819573 -1.90576,1.84485 c -1.77732,1.7202 -1.9911,1.84528 -3.16532,1.85125 -0.69185,0.003 -2.84088,0.32461 -4.77515,0.71348 -3.91913,0.7881 -10.56725,1.1037 -13.10288,0.62203 z m -15.11843,-1.84222 c -1.80577,-1.77461 -1.96345,-2.03541 -3.02621,-5.007198 -2.59593,-7.258766 -3.19019,-11.038681 -2.77351,-17.638645 0.52619,-8.334251 3.02451,-15.553423 8.56592,-24.751662 2.63408,-4.372185 10.28129,-11.621173 13.78151,-13.063834 0.61884,-0.255029 2.22542,-0.882982 3.57068,-1.39535 l 2.44552,-0.931586 1.56315,1.540485 c 0.85966,0.847276 1.56298,1.664281 1.56298,1.815523 0,0.15135 -0.73349,0.982731 -1.62967,1.847728 -1.30142,1.256201 -2.19886,1.813736 -4.45753,2.770117 -4.53322,1.919349 -8.70298,4.845051 -10.7873,7.569738 -1.42327,1.860564 -3.94303,6.634675 -5.05603,9.578555 -0.46308,1.224664 -1.2267,4.031474 -1.69702,6.237289 -0.4704,2.205805 -0.91618,4.106811 -0.99066,4.224415 -0.43463,0.685828 -0.6447,5.717045 -0.40481,9.696052 0.35654,5.915502 1.18608,8.710834 3.92958,13.241249 l 1.44259,2.381774 -1.91174,1.87874 c -1.05118,1.03332 -1.98145,1.87874 -2.06711,1.87874 -0.0852,0 -1.01282,-0.84243 -2.06034,-1.87213 z m 24.42415,-28.078585 c -1.08324,-0.13577 -3.10852,-0.17662 -4.50097,-0.09076 l -2.5319,0.155846 -1.76651,-1.740791 -1.76635,-1.740793 1.90699,-1.793093 1.90747,-1.793061 2.55069,-0.317578 c 1.40307,-0.174606 3.68525,-0.317571 5.07125,-0.317571 h 2.51987 l 1.95447,1.9208 1.95406,1.920835 -2.09531,2.057497 c -1.33834,1.314238 -2.30109,2.044466 -2.66492,2.021456 -0.31351,-0.01987 -1.45588,-0.147123 -2.53884,-0.282574 z m 22.71522,-25.764308 c -2.12571,-0.269611 -5.37744,-1.118378 -7.10291,-1.854143 -0.69647,-0.29684 -1.89558,-1.171585 -2.66525,-1.943786 l -1.39968,-1.403961 1.45275,-1.416807 1.45237,-1.416796 1.6347,0.462743 c 2.99178,0.846957 4.42223,1.067602 7.51901,1.159961 l 3.07141,0.09172 1.64106,1.584085 1.64128,1.584104 -1.75045,1.722779 c -1.93074,1.899868 -1.88485,1.887943 -5.49429,1.430249 z"
       id="path1" /></g></svg>
